<?xml version="1.0" encoding="utf-8"?>
<!-- Generator: Adobe Illustrator 18.0.0, SVG Export Plug-In . SVG Version: 6.00 Build 0)  -->
<!DOCTYPE svg PUBLIC "-//W3C//DTD SVG 1.1//EN" "http://www.w3.org/Graphics/SVG/1.1/DTD/svg11.dtd">
<svg version="1.1" xmlns="http://www.w3.org/2000/svg" xmlns:xlink="http://www.w3.org/1999/xlink" x="0px" y="0px"
	 viewBox="0 0 36 36" enable-background="new 0 0 36 36" xml:space="preserve">
<g id="Abfluss_geschlossen">
	<g>
		<g>
			<path fill="#BEBEBE" d="M17.3,13.7c0-0.5,0-0.9,0-1.3c0.4,0,0.9,0,1.3,0c0,0.4,0,0.9,0,1.3C18.2,13.7,17.8,13.7,17.3,13.7z"/>
			<path fill="#BEBEBE" d="M17.3,16.4c0-0.5,0-0.9,0-1.3c0.4,0,0.9,0,1.3,0c0,0.4,0,0.9,0,1.3C18.2,16.4,17.8,16.4,17.3,16.4z"/>
			<path fill="#BEBEBE" d="M18.7,9.6c0,0.4,0,0.9,0,1.3c-0.4,0-0.9,0-1.3,0c0-0.4,0-0.9,0-1.3C17.8,9.6,18.2,9.6,18.7,9.6z"/>
		</g>
	</g>
	<path id="Kreis_2_" fill="#969696" d="M18,2c8.8,0,16,7.2,16,16s-7.2,16-16,16S2,26.8,2,18S9.2,2,18,2 M18,0C8.1,0,0,8.1,0,18
		s8.1,18,18,18c9.9,0,18-8.1,18-18S27.9,0,18,0L18,0z"/>
	<g>
		<path fill="#969696" d="M28,14v5.6c0,1.7-1.1,3.4-3,3.4h-5v2h5c2.9,0,5-2.6,5-5.4V14H28z"/>
		<path fill="#969696" d="M16,23h-5c-1.9,0-3-1.6-3-3.4V14H6v5.6c0,2.7,2.1,5.4,5,5.4h5V23z"/>
	</g>
	<rect x="12" y="21" fill="#969696" width="12" height="2"/>
	<g>
		<rect x="13" y="18" fill="#BEBEBE" width="4" height="1"/>
		<rect x="19" y="18" fill="#BEBEBE" width="4" height="1"/>
		<g>
			<rect x="8" y="18" fill="#BEBEBE" width="3" height="1"/>
			<rect x="25" y="18" fill="#BEBEBE" width="3" height="1"/>
		</g>
	</g>
</g>
<g id="Abfluss_Offen">
</g>
</svg>
